<svg width="32" height="32" xmlns="http://www.w3.org/2000/svg" xmlns:svg="http://www.w3.org/2000/svg">
 <g class="layer">
  <title>Layer 1</title>
  <!-- 原轨道弧线 -->
  <path d="m5,26c-0.9,-7.5 2.49,-11.35 6.42,-14.84" fill="none" id="svg_1" stroke="#3399FF" stroke-linecap="round" stroke-width="2" transform="matrix(1 0 0 1 0 0)"/>
  <!-- 机动后的新轨道弧线 -->
  <path d="m11.62,11.02c6.57,-4.36 8.9,-4.77 16.51,-5.65" fill="none" id="svg_2" marker-end="url(#mkr_end_svg_2)" stroke="#3399FF" stroke-dasharray="2,1.5" stroke-linecap="round" stroke-width="1.5"/>
  <!-- 推力矢量箭头 - 在机动点沿切线方向 -->
  <path d="m11.56,11.16c4.83,-2.76 12.08,1.29 15.26,4.98" fill="none" id="svg_3" marker-end="url(#mkr_maneuver)" stroke="#FF9933" stroke-linecap="round" stroke-width="2" transform="matrix(1 0 0 1 0 0)"/>
  <!-- 机动点 -->
  <circle cx="18" cy="7" fill="#FF9933" id="svg_4" r="2.5" transform="matrix(1 0 0 1 -6.72211 4.0887)"/>
 </g>
 <defs>
  <marker id="mkr_end_svg_2" markerHeight="4" markerUnits="strokeWidth" markerWidth="4" orient="auto" refX="50" refY="50" viewBox="0 0 100 100">
   <path d="m100,50l-100,40l30,-40l-30,-40l100,40z" fill="#3399FF" id="svg_5" stroke="#3399FF" stroke-width="10"/>
  </marker>
  <marker id="mkr_maneuver" markerHeight="4" markerUnits="strokeWidth" markerWidth="4" orient="auto" refX="50" refY="50" viewBox="0 0 100 100">
   <path d="m100,50l-100,40l30,-40l-30,-40l100,40z" fill="#FF9933" id="svg_6" stroke="#FF9933" stroke-width="10"/>
  </marker>
 </defs>
</svg>